<svg width="56" height="56" viewBox="0 0 56 56" fill="none" xmlns="http://www.w3.org/2000/svg">
<g clip-path="url(#clip0_9_150)">
<path d="M23.52 40.6C23.1 40.6 22.82 40.46 22.54 40.18C21.98 39.62 21.98 38.78 22.54 38.22L32.76 28L22.54 17.78C21.98 17.22 21.98 16.38 22.54 15.82C23.1 15.26 23.94 15.26 24.5 15.82L35.7 27.02C36.26 27.58 36.26 28.42 35.7 28.98L24.5 40.18C24.22 40.46 23.8 40.6 23.52 40.6Z" fill="#000000"/>
<path d="M28 56C12.6 56 0 43.4 0 28C0 12.6 12.6 0 28 0C34.3 0 40.18 2.1 45.22 5.88C45.78 6.3 45.92 7.28 45.5 7.84C45.08 8.4 44.1 8.54 43.54 8.12C39.06 4.62 33.6 2.8 28 2.8C14.14 2.8 2.8 14.14 2.8 28C2.8 41.86 14.14 53.2 28 53.2C41.86 53.2 53.2 41.86 53.2 28C53.2 23.52 51.94 19.04 49.7 15.12C49.28 14.42 49.56 13.58 50.12 13.16C50.82 12.74 51.66 13.02 52.08 13.58C54.6 18.06 56 22.96 56 28C56 43.4 43.4 56 28 56Z" fill="#000000"/>
</g>
<defs>
<clipPath id="clip0_9_150">
<rect width="56" height="56" fill="white"/>
</clipPath>
</defs>
</svg>
