<svg width="48" height="48" viewBox="0 0 48 48" fill="none" xmlns="http://www.w3.org/2000/svg">
<g clip-path="url(#clip0_107_7179)">
<path d="M47.3813 18.5124L24.7486 0.999581C24.5345 0.833264 24.2711 0.742981 24 0.742981C23.7289 0.742981 23.4655 0.833264 23.2514 0.999581L0.619441 18.5124C0.41743 18.6684 0.269274 18.8837 0.195724 19.1281C0.122174 19.3725 0.126914 19.6338 0.209281 19.8753C0.29209 20.1167 0.448181 20.3262 0.655774 20.4746C0.863367 20.623 1.1121 20.7029 1.36728 20.7031H46.6325C47.1415 20.7031 47.6165 20.3834 47.7905 19.8753C47.8727 19.6338 47.8774 19.3727 47.804 19.1284C47.7307 18.884 47.5829 18.6687 47.3813 18.5124ZM14.1758 15.1037L24.0002 7.50094L33.8246 15.1037H14.1758ZM15.223 38.5041H13.9922V25.5525C14.8824 25.5525 15.6113 24.8237 15.6113 23.9337C15.6113 23.0426 14.8824 22.3147 13.9922 22.3147H7.72008C6.82944 22.3147 6.10032 23.0426 6.10032 23.9337C6.10032 24.8237 6.8292 25.5525 7.72008 25.5525V38.5041H6.48984C6.27552 38.5041 6.10032 38.6784 6.10032 38.892V39.6686C6.10032 39.8825 6.27528 40.0574 6.48984 40.0574H15.223C15.4363 40.0574 15.6113 39.8825 15.6113 39.6686V38.892C15.6113 38.6781 15.4361 38.5041 15.223 38.5041ZM28.3663 38.5041H27.1366V25.5525C28.0265 25.5525 28.7551 24.8237 28.7551 23.9337C28.7551 23.0426 28.0265 22.3147 27.1366 22.3147H20.8639C19.9733 22.3147 19.2449 23.0426 19.2449 23.9337C19.2449 24.8237 19.9733 25.5525 20.8639 25.5525V38.5041H19.6339C19.4196 38.5041 19.2449 38.6784 19.2449 38.892V39.6686C19.2449 39.8825 19.4196 40.0574 19.6339 40.0574H28.3666C28.5804 40.0574 28.7554 39.8825 28.7554 39.6686V38.892C28.7549 38.789 28.7137 38.6905 28.6409 38.6178C28.568 38.5451 28.4693 38.5043 28.3663 38.5041ZM41.5106 38.5041H40.2799V25.5525C41.1706 25.5525 41.8994 24.8237 41.8994 23.9337C41.8994 23.0426 41.1706 22.3147 40.2799 22.3147H34.008C33.1178 22.3147 32.389 23.0426 32.389 23.9337C32.389 24.8237 33.1178 25.5525 34.008 25.5525V38.5041H32.7773C32.5644 38.5041 32.389 38.6784 32.389 38.892V39.6686C32.389 39.8825 32.5644 40.0574 32.7773 40.0574H41.5106C41.7245 40.0574 41.8994 39.8825 41.8994 39.6686V38.892C41.8994 38.6781 41.7245 38.5041 41.5106 38.5041ZM44.0004 44.4571V42.4579C44.0007 42.3527 43.98 42.2485 43.9397 42.1514C43.8993 42.0542 43.8401 41.9661 43.7654 41.892C43.6915 41.8175 43.6035 41.7584 43.5065 41.7182C43.4095 41.6779 43.3055 41.6574 43.2005 41.6577H4.80048C4.59576 41.6577 4.3908 41.735 4.23456 41.892C4.16016 41.9662 4.10116 42.0544 4.06097 42.1516C4.02077 42.2487 4.00016 42.3528 4.00032 42.4579V44.4571H0.800161C0.695047 44.457 0.59094 44.4776 0.493803 44.5177C0.396666 44.5579 0.308407 44.6169 0.23408 44.6912C0.159753 44.7655 0.100819 44.8538 0.0606518 44.9509C0.0204848 45.048 -0.000125762 45.1521 5.77323e-07 45.2573V47.2567H48V45.2573C48 45.0525 47.9218 44.8481 47.7653 44.6913C47.6912 44.617 47.6031 44.558 47.5061 44.5178C47.4091 44.4776 47.3051 44.457 47.2001 44.4571H44.0004Z" fill="#5E889E"/>
</g>
<defs>
<clipPath id="clip0_107_7179">
<rect width="48" height="48" fill="white"/>
</clipPath>
</defs>
</svg>
