<svg width="28" height="28" viewBox="0 0 32 32" fill="none" xmlns="http://www.w3.org/2000/svg">
<path d="M18.8203 16.0044L31.3899 3.43424C31.5807 3.24998 31.7329 3.02957 31.8376 2.78587C31.9423 2.54217 31.9974 2.28006 31.9997 2.01484C32.002 1.74961 31.9514 1.48658 31.851 1.2411C31.7506 0.995618 31.6022 0.772596 31.4147 0.585047C31.2272 0.397499 31.0041 0.24918 30.7586 0.148745C30.5132 0.0483099 30.2501 -0.0022293 29.9849 7.54189e-05C29.7197 0.00238014 29.4576 0.0574831 29.2139 0.162169C28.9702 0.266855 28.7498 0.419027 28.5655 0.609807L15.9954 13.1794L3.42575 0.609807C3.04978 0.242096 2.54397 0.0374869 2.01809 0.0403831C1.4922 0.0432792 0.988677 0.253447 0.616782 0.625276C0.244887 0.997105 0.0346315 1.50059 0.0316424 2.02648C0.0286532 2.55236 0.233173 3.05821 0.600817 3.43424L13.1709 16.0044L0.600817 28.5745C0.411941 28.7592 0.261587 28.9796 0.158461 29.2228C0.055335 29.4661 0.00148523 29.7273 3.02926e-05 29.9915C-0.00142465 30.2557 0.0495442 30.5176 0.149985 30.7619C0.250426 31.0063 0.398343 31.2283 0.585172 31.4151C0.772002 31.6019 0.994032 31.7498 1.23841 31.8501C1.48278 31.9505 1.74464 32.0015 2.00883 32C2.27302 31.9985 2.53429 31.9446 2.7775 31.8414C3.02072 31.7382 3.24106 31.5878 3.42575 31.3989L15.9954 18.8293L28.5655 31.3989C28.9555 31.7889 29.4669 31.9842 29.9777 31.9842C30.4886 31.9842 31.0004 31.7889 31.3899 31.3989C31.7644 31.0243 31.9748 30.5164 31.9748 29.9867C31.9748 29.4571 31.7644 28.9491 31.3899 28.5745L18.8203 16.0044Z" fill="#004454"/>
</svg>
