<svg width="40" height="40" viewBox="0 0 40 40" fill="none" xmlns="http://www.w3.org/2000/svg">
<path d="M20 3.33337C16.465 3.33734 13.0759 4.74338 10.5763 7.243C8.07663 9.74263 6.6706 13.1317 6.66663 16.6667C6.66663 22.0917 10.605 26.5967 14.7766 31.365C16.0966 32.875 17.4633 34.4367 18.68 36.0167C18.8357 36.2187 19.0356 36.3822 19.2645 36.4948C19.4933 36.6073 19.7449 36.6658 20 36.6658C20.255 36.6658 20.5066 36.6073 20.7354 36.4948C20.9643 36.3822 21.1643 36.2187 21.32 36.0167C22.5366 34.4367 23.9033 32.875 25.2233 31.365C29.395 26.5967 33.3333 22.0917 33.3333 16.6667C33.3293 13.1317 31.9233 9.74263 29.4237 7.243C26.924 4.74338 23.535 3.33734 20 3.33337ZM20 21.6667C19.0111 21.6667 18.0444 21.3735 17.2221 20.8241C16.3999 20.2746 15.759 19.4938 15.3806 18.5801C15.0021 17.6665 14.9031 16.6612 15.096 15.6913C15.289 14.7214 15.7652 13.8304 16.4644 13.1312C17.1637 12.4319 18.0546 11.9557 19.0245 11.7628C19.9944 11.5699 20.9997 11.6689 21.9134 12.0473C22.827 12.4257 23.6079 13.0666 24.1573 13.8889C24.7067 14.7111 25 15.6778 25 16.6667C25 17.9928 24.4732 19.2646 23.5355 20.2022C22.5978 21.1399 21.326 21.6667 20 21.6667Z" fill="#001418"/>
</svg>
