<svg width="28" height="29" viewBox="0 0 28 29" fill="none" xmlns="http://www.w3.org/2000/svg">
<path fill-rule="evenodd" clip-rule="evenodd" d="M4.08434 16.585V16.3295C4.12182 15.5736 4.36407 14.8412 4.78612 14.2079C5.48863 13.447 5.96953 12.5147 6.17837 11.5086C6.17837 10.7311 6.17837 9.94242 6.24629 9.16487C6.59718 5.42149 10.2985 2.83334 13.9546 2.83334H14.0452C17.7012 2.83334 21.4026 5.42149 21.7648 9.16487C21.8327 9.94242 21.7648 10.7311 21.8214 11.5086C22.033 12.517 22.5135 13.4523 23.2136 14.219C23.6389 14.8467 23.8815 15.5764 23.9154 16.3295V16.5739C23.9407 17.5894 23.5909 18.5796 22.9307 19.362C22.0582 20.2767 20.8742 20.8458 19.6028 20.9615C15.8749 21.3614 12.1136 21.3614 8.3856 20.9615C7.11571 20.8408 5.93343 20.2726 5.05778 19.362C4.40771 18.579 4.06265 17.5947 4.08434 16.585ZM11.1475 24.8271C11.73 25.5582 12.5853 26.0314 13.5243 26.1418C14.4633 26.2523 15.4084 25.991 16.1505 25.4158C16.3788 25.2457 16.5841 25.0478 16.7617 24.8271" fill="#004454"/>
<path d="M11.1475 24.8271C11.73 25.5582 12.5853 26.0314 13.5243 26.1418C14.4633 26.2523 15.4084 25.991 16.1505 25.4158C16.3788 25.2457 16.5841 25.0478 16.7617 24.8271M4.08434 16.585V16.3295C4.12182 15.5736 4.36407 14.8412 4.78612 14.2079C5.48863 13.447 5.96953 12.5147 6.17837 11.5086C6.17837 10.7311 6.17837 9.94242 6.24629 9.16487C6.59718 5.42149 10.2985 2.83334 13.9546 2.83334H14.0452C17.7012 2.83334 21.4026 5.42149 21.7648 9.16487C21.8327 9.94242 21.7648 10.7311 21.8214 11.5086C22.033 12.517 22.5135 13.4523 23.2136 14.219C23.6389 14.8467 23.8815 15.5764 23.9154 16.3295V16.5739C23.9407 17.5894 23.5909 18.5796 22.9307 19.362C22.0582 20.2767 20.8742 20.8458 19.6028 20.9615C15.8749 21.3614 12.1136 21.3614 8.3856 20.9615C7.11571 20.8408 5.93343 20.2726 5.05778 19.362C4.40771 18.579 4.06265 17.5947 4.08434 16.585Z" stroke="#004454" stroke-width="1.5" stroke-linecap="round" stroke-linejoin="round"/>
</svg>
