<svg width="104" height="48" viewBox="0 0 104 48" fill="none" xmlns="http://www.w3.org/2000/svg">
<path d="M9.96302 35.0936H10.6029L10.0036 37.6172C9.91224 37.988 9.93255 38.2764 10.0544 38.4618C10.1763 38.6472 10.3997 38.7399 10.7349 38.7399C11.0599 38.7399 11.3341 38.6472 11.5474 38.4618C11.7607 38.2764 11.9029 37.988 11.9943 37.6172L12.5935 35.0936H13.2435L12.6341 37.679C12.5021 38.2352 12.2685 38.6575 11.9232 38.9356C11.588 39.2138 11.1411 39.358 10.5927 39.358C10.0443 39.358 9.66849 39.2241 9.46536 38.9459C9.26224 38.6678 9.22161 38.2455 9.35365 37.6893L9.96302 35.0936ZM13.1521 39.2447L14.1677 34.9288L16.0974 37.4627C16.1482 37.5348 16.199 37.6069 16.2497 37.6893C16.3005 37.7717 16.3513 37.8644 16.4122 37.9674L17.0927 35.0936H17.6919L16.6763 39.3992L14.706 36.8137L14.5536 36.5974C14.5029 36.515 14.4622 36.4429 14.4318 36.3502L13.7513 39.2344H13.1521V39.2447ZM17.6411 39.2447L18.6161 35.0936H19.2661L18.2911 39.2447H17.6411ZM19.2154 39.2447L20.1904 35.0936H22.4146L22.2825 35.6704H20.7083L20.4646 36.7004H22.0388L21.8966 37.2876H20.3224L19.8654 39.2344H19.2154V39.2447ZM22.1607 39.2447L23.1357 35.0936H23.7857L22.8107 39.2447H22.1607ZM23.7349 39.2447L24.7099 35.0936H26.9341L26.8021 35.6704H25.2279L24.9841 36.7107H26.5583L26.4161 37.2979H24.8419L24.5271 38.6369H26.1013L25.9591 39.2447H23.7349ZM26.7107 39.2447L27.6857 35.0936H28.5591C29.1279 35.0936 29.524 35.1245 29.7372 35.1863C29.9505 35.2481 30.1333 35.3408 30.2755 35.485C30.4583 35.6704 30.5802 35.9073 30.631 36.1854C30.6818 36.4738 30.6615 36.8034 30.5802 37.164C30.4888 37.5348 30.3568 37.8541 30.174 38.1425C29.9911 38.4309 29.7575 38.6575 29.4833 38.8429C29.2802 38.9871 29.0568 39.0798 28.813 39.1416C28.5794 39.2035 28.224 39.2344 27.7568 39.2344H26.7107V39.2447ZM27.5029 38.6266H28.0513C28.3458 38.6266 28.5794 38.606 28.7419 38.5648C28.9044 38.5236 29.0466 38.4515 29.1786 38.3588C29.3615 38.2249 29.5138 38.0601 29.6357 37.8541C29.7575 37.6584 29.849 37.4215 29.9099 37.1537C29.9708 36.8859 29.9911 36.6592 29.9607 36.4635C29.9302 36.2678 29.8591 36.0927 29.7372 35.9588C29.6458 35.8558 29.5341 35.794 29.3818 35.7528C29.2294 35.7116 28.9958 35.691 28.6607 35.691H28.1935L27.5029 38.6266ZM33.5661 37.3803L33.1294 39.2447H32.5201L33.495 35.0936H34.4802C34.7747 35.0936 34.9779 35.1142 35.1099 35.1451C35.2419 35.176 35.3435 35.2275 35.4247 35.3099C35.5263 35.4026 35.5974 35.5365 35.6279 35.7013C35.6583 35.8661 35.6482 36.0412 35.6075 36.2369C35.5568 36.4326 35.4857 36.618 35.374 36.7828C35.2622 36.9477 35.1302 37.0816 34.988 37.1743C34.8661 37.2464 34.7341 37.3082 34.5919 37.3391C34.4497 37.37 34.2263 37.3906 33.9419 37.3906H33.5661V37.3803ZM33.7388 36.8241H33.9013C34.2568 36.8241 34.5107 36.7828 34.6529 36.7004C34.7951 36.618 34.8865 36.4738 34.9372 36.2678C34.988 36.0515 34.9576 35.8867 34.856 35.8043C34.7443 35.7116 34.5208 35.6704 34.1857 35.6704H34.0232L33.7388 36.8241ZM37.8115 39.2447L37.6083 38.1734H36.024L35.313 39.2447H34.6325L37.5779 34.9288L38.4919 39.2447H37.8115ZM36.4099 37.6069H37.5169L37.3341 36.6592C37.324 36.5974 37.3138 36.5253 37.3138 36.4532C37.3036 36.3708 37.3036 36.2884 37.3036 36.1957C37.263 36.2884 37.2224 36.3708 37.1716 36.4532C37.131 36.5356 37.0904 36.6077 37.0497 36.6695L36.4099 37.6069ZM39.4263 39.2447L39.8732 37.3494L39.0607 35.1039H39.7411L40.249 36.515C40.2591 36.5562 40.2693 36.5974 40.2896 36.6592C40.3099 36.721 40.3201 36.7829 40.3404 36.8447L40.4622 36.6592C40.5029 36.5974 40.5435 36.5459 40.5841 36.4944L41.7724 35.1039H42.4224L40.5232 37.3391L40.0763 39.2344H39.4263V39.2447ZM45.6115 37.1949C45.6115 37.164 45.6216 37.0713 45.6419 36.9271C45.6521 36.8034 45.6622 36.7107 45.6724 36.6283C45.6318 36.721 45.5911 36.8137 45.5404 36.9168C45.4896 37.0095 45.4286 37.1125 45.3575 37.2052L43.7935 39.4198L43.2857 37.164C43.2654 37.0713 43.245 36.9786 43.2349 36.8962C43.2247 36.8138 43.2146 36.721 43.2146 36.6386C43.1943 36.721 43.1638 36.8137 43.1333 36.9168C43.1029 37.0095 43.0622 37.1125 43.0115 37.2155L42.0974 39.255H41.4982L43.4583 34.9288L44.0169 37.5451C44.0271 37.5863 44.0372 37.6584 44.0474 37.7511C44.0575 37.8438 44.0779 37.9674 44.0982 38.1116C44.1693 37.988 44.2607 37.8438 44.3825 37.6584C44.413 37.6069 44.4435 37.576 44.4536 37.5451L46.2208 34.9288L46.1599 39.255H45.5607L45.6115 37.1949ZM46.688 39.2447L47.663 35.0936H49.8872L49.7552 35.6704H48.181L47.9372 36.7107H49.5115L49.3693 37.2979H47.795L47.4802 38.6369H49.0544L48.9122 39.2447H46.688ZM49.6536 39.2447L50.6693 34.9288L52.599 37.4627C52.6497 37.5348 52.7005 37.6069 52.7513 37.6893C52.8021 37.7717 52.8529 37.8644 52.9138 37.9674L53.5943 35.0936H54.1935L53.1779 39.3992L51.2076 36.8137L51.0552 36.5974C51.0044 36.515 50.9638 36.4429 50.9333 36.3502L50.2529 39.2344H49.6536V39.2447ZM56.2654 35.6601L55.4224 39.2344H54.7724L55.6154 35.6601H54.5591L54.6911 35.0833H57.4536L57.3216 35.6601H56.2654ZM56.9458 38.4103L57.5247 38.1631C57.5349 38.3485 57.5857 38.4927 57.6974 38.5854C57.8091 38.6781 57.9615 38.7296 58.1646 38.7296C58.3575 38.7296 58.52 38.6781 58.6622 38.5648C58.8044 38.4515 58.8958 38.3073 58.9365 38.1219C58.9974 37.8747 58.8552 37.6584 58.5099 37.473C58.4591 37.4421 58.4286 37.4215 58.3982 37.4112C58.0122 37.1846 57.7685 36.9889 57.6669 36.8034C57.5654 36.618 57.545 36.4017 57.606 36.1442C57.6872 35.8043 57.8599 35.5365 58.1341 35.3202C58.4083 35.1142 58.713 35.0009 59.0786 35.0009C59.3732 35.0009 59.6068 35.0627 59.7794 35.176C59.9521 35.2893 60.0435 35.4644 60.074 35.6807L59.5052 35.9485C59.4544 35.8146 59.3935 35.7219 59.3122 35.6601C59.231 35.5983 59.1294 35.5674 59.0075 35.5674C58.8349 35.5674 58.6825 35.6189 58.5607 35.7116C58.4388 35.8043 58.3575 35.9279 58.3169 36.0927C58.256 36.3399 58.4286 36.5768 58.8247 36.7932C58.8552 36.8138 58.8755 36.8241 58.8958 36.8344C59.2411 37.0198 59.4747 37.2052 59.5763 37.3906C59.6779 37.576 59.6982 37.7923 59.6372 38.0704C59.5458 38.4618 59.3529 38.7708 59.0583 39.0077C58.7638 39.2344 58.4185 39.358 58.0122 39.358C57.6771 39.358 57.413 39.2756 57.2302 39.1107C57.0271 38.9459 56.9357 38.709 56.9458 38.4103ZM61.7294 39.2447L62.7044 35.0936H63.3544L62.3794 39.2447H61.7294ZM63.3138 39.2447L64.3294 34.9288L66.2591 37.4627C66.3099 37.5348 66.3607 37.6069 66.4115 37.6893C66.4622 37.7717 66.513 37.8644 66.574 37.9674L67.2544 35.0936H67.8536L66.838 39.3992L64.8677 36.8137L64.7154 36.5974C64.6646 36.515 64.624 36.4429 64.5935 36.3502L63.913 39.2344H63.3138V39.2447ZM69.9255 35.6601L69.0826 39.2344H68.4325L69.2755 35.6601H68.2193L68.3513 35.0833H71.1138L70.9818 35.6601H69.9255ZM70.6263 39.2447L71.6013 35.0936H73.8357L73.7036 35.6704H72.1294L71.8857 36.7107H73.4599L73.3177 37.2979H71.7435L71.4286 38.6369H73.0029L72.8607 39.2447H70.6263ZM74.638 37.3803L74.2013 39.2344H73.5919L74.5669 35.0833H75.4708C75.7349 35.0833 75.938 35.1039 76.0701 35.1348C76.2122 35.1657 76.324 35.2275 76.4052 35.3099C76.5068 35.4129 76.5677 35.5365 76.5982 35.7013C76.6286 35.8558 76.6185 36.0309 76.5779 36.2266C76.4966 36.5562 76.3646 36.824 76.1615 37.0095C75.9583 37.1949 75.7044 37.3082 75.3997 37.3494L76.324 39.2344H75.5927L74.7091 37.3803H74.638ZM74.8005 36.855H74.9224C75.2677 36.855 75.5013 36.8138 75.6333 36.7313C75.7654 36.6489 75.8568 36.5047 75.9076 36.2884C75.9583 36.0618 75.938 35.897 75.8365 35.8043C75.7349 35.7116 75.5216 35.6601 75.1966 35.6601H75.0747L74.8005 36.855ZM76.7201 39.2447L77.6951 35.0936H79.9193L79.7872 35.6704H78.213L77.9693 36.7004H79.5435L79.4013 37.2876H77.8271L77.37 39.2344H76.7201V39.2447ZM82.0826 39.2447L81.8794 38.1734H80.295L79.5841 39.2447H78.9036L81.849 34.9288L82.763 39.2447H82.0826ZM80.6708 37.6069H81.7779L81.5951 36.6592C81.5849 36.5974 81.5747 36.5253 81.5747 36.4532C81.5646 36.3708 81.5646 36.2884 81.5646 36.1957C81.524 36.2884 81.4833 36.3708 81.4325 36.4532C81.3919 36.5356 81.3513 36.6077 81.3107 36.6695L80.6708 37.6069ZM86.988 36.103C86.8458 35.9382 86.6732 35.8146 86.4904 35.7425C86.3075 35.6601 86.1044 35.6189 85.8708 35.6189C85.4341 35.6189 85.0482 35.7631 84.7029 36.0515C84.3576 36.3399 84.1341 36.721 84.0224 37.1846C83.9208 37.6275 83.9615 37.9983 84.1646 38.297C84.3576 38.5854 84.6622 38.7296 85.0685 38.7296C85.3021 38.7296 85.5357 38.6884 85.7693 38.5957C86.0029 38.5133 86.2365 38.3794 86.4802 38.2043L86.2974 38.9665C86.0943 39.1004 85.881 39.1932 85.6576 39.255C85.4341 39.3168 85.2107 39.3477 84.9669 39.3477C84.6622 39.3477 84.388 39.2962 84.1544 39.1931C83.9208 39.0901 83.7279 38.9356 83.5755 38.7296C83.4232 38.5339 83.3318 38.297 83.2911 38.0292C83.2505 37.7614 83.2607 37.473 83.3419 37.164C83.413 36.855 83.5349 36.5768 83.6974 36.309C83.8599 36.0412 84.0732 35.8043 84.3169 35.6086C84.5607 35.4026 84.8247 35.2481 85.1091 35.1451C85.3935 35.0421 85.6779 34.9906 85.9724 34.9906C86.206 34.9906 86.4193 35.0215 86.6224 35.0936C86.8154 35.1657 86.9982 35.2687 87.1607 35.4129L86.988 36.103ZM87.049 39.2447L88.024 35.0936H90.2482L90.1161 35.6704H88.5419L88.2982 36.7107H89.8724L89.7302 37.2979H88.156L87.8411 38.6369H89.4154L89.2732 39.2447H87.049Z" fill="#3D3D3C"/>
<path d="M75.2274 31.4781H70.7688L76.9641 8.78625H81.4227L75.2274 31.4781ZM72.9118 9.49698C72.6071 9.06437 72.1298 8.84806 71.4798 8.84806H46.9829L45.7743 13.2978H68.0571L66.7571 18.0463H48.9329V18.036H44.4743L40.7774 31.5811H45.236L47.7141 22.4961H67.7524C68.3821 22.4961 68.9712 22.2798 69.5196 21.8472C70.0681 21.4146 70.4337 20.879 70.6063 20.2403L73.0845 11.1554C73.2774 10.4755 73.2165 9.9296 72.9118 9.49698ZM38.1774 30.0566C37.9337 30.9528 37.1212 31.5811 36.2071 31.5811H13.2235C12.5938 31.5811 12.1266 31.3648 11.822 30.9322C11.5173 30.4996 11.4462 29.9639 11.629 29.3253L17.2352 8.84806H21.6938L16.6868 27.1416H34.5212L39.5282 8.84806H43.9868L38.1774 30.0566Z" fill="#70706E"/>
<path d="M89.1209 8.82745L94.7576 20.1991L82.9053 31.5708L89.1209 8.82745Z" fill="#098041"/>
<path d="M85.1604 8.82745L90.7971 20.1991L78.9346 31.5708L85.1604 8.82745Z" fill="#E97626"/>
</svg>
