<svg width="56" height="56" viewBox="0 0 56 56" fill="none" xmlns="http://www.w3.org/2000/svg">
<g clip-path="url(#clip0_9_147)">
<path d="M32.48 40.6C32.9 40.6 33.18 40.46 33.46 40.18C34.02 39.62 34.02 38.78 33.46 38.22L23.24 28L33.46 17.78C34.02 17.22 34.02 16.38 33.46 15.82C32.9 15.26 32.06 15.26 31.5 15.82L20.3 27.02C19.74 27.58 19.74 28.42 20.3 28.98L31.5 40.18C31.78 40.46 32.2 40.6 32.48 40.6Z" fill="#000000"/>
<path d="M28 56C43.4 56 56 43.4 56 28C56 12.6 43.4 0 28 0C21.7 0 15.82 2.1 10.78 5.88C10.22 6.3 10.08 7.28 10.5 7.84C10.92 8.4 11.9 8.54 12.46 8.12C16.94 4.62 22.4 2.8 28 2.8C41.86 2.8 53.2 14.14 53.2 28C53.2 41.86 41.86 53.2 28 53.2C14.14 53.2 2.8 41.86 2.8 28C2.8 23.52 4.06 19.04 6.3 15.12C6.72 14.42 6.44 13.58 5.88 13.16C5.18 12.74 4.34 13.02 3.92 13.58C1.4 18.06 0 22.96 0 28C0 43.4 12.6 56 28 56Z" fill="#000000"/>
</g>
<defs>
<clipPath id="clip0_9_147">
<rect width="56" height="56" fill="white" transform="matrix(-1 0 0 1 56 0)"/>
</clipPath>
</defs>
</svg>
