<svg width="40" height="40" viewBox="0 0 40 40" fill="none" xmlns="http://www.w3.org/2000/svg">
<path d="M33.3875 33.325H6.61255C5.20409 33.3234 3.8538 32.7632 2.85787 31.7672C1.86194 30.7713 1.3017 29.421 1.30005 28.0125V11.9875C1.3017 10.5791 1.86194 9.2288 2.85787 8.23287C3.8538 7.23694 5.20409 6.6767 6.61255 6.67505H33.3875C34.796 6.6767 36.1463 7.23694 37.1422 8.23287C38.1382 9.2288 38.6984 10.5791 38.7 11.9875V28.0125C38.6984 29.421 38.1382 30.7713 37.1422 31.7672C36.1463 32.7632 34.796 33.3234 33.3875 33.325ZM6.61255 8.55005C5.70087 8.55005 4.82653 8.91221 4.18187 9.55687C3.53721 10.2015 3.17505 11.0759 3.17505 11.9875V28.0125C3.17505 28.9242 3.53721 29.7986 4.18187 30.4432C4.82653 31.0879 5.70087 31.45 6.61255 31.45H33.3875C34.2992 31.45 35.1736 31.0879 35.8182 30.4432C36.4629 29.7986 36.825 28.9242 36.825 28.0125V11.9875C36.825 11.0759 36.4629 10.2015 35.8182 9.55687C35.1736 8.91221 34.2992 8.55005 33.3875 8.55005H6.61255Z" fill="#001418"/>
<path d="M20 23.8C18.8434 23.8018 17.7178 23.4266 16.7937 22.7313L2.19996 11.6938C2.09685 11.6214 2.00938 11.529 1.94278 11.4221C1.87617 11.3151 1.8318 11.1959 1.81231 11.0714C1.79282 10.947 1.79862 10.8199 1.82934 10.6977C1.86007 10.5755 1.91511 10.4608 1.99116 10.3604C2.06721 10.26 2.16272 10.1759 2.27199 10.1132C2.38126 10.0505 2.50204 10.0105 2.62712 9.99554C2.75219 9.98056 2.87901 9.99096 2.99998 10.0261C3.12096 10.0612 3.23361 10.1204 3.33121 10.2L17.925 21.25C18.5243 21.6974 19.2521 21.9391 20 21.9391C20.7478 21.9391 21.4757 21.6974 22.075 21.25L36.6687 10.2C36.7663 10.1204 36.879 10.0612 36.9999 10.0261C37.1209 9.99096 37.2477 9.98056 37.3728 9.99554C37.4979 10.0105 37.6187 10.0505 37.7279 10.1132C37.8372 10.1759 37.9327 10.26 38.0088 10.3604C38.0848 10.4608 38.1399 10.5755 38.1706 10.6977C38.2013 10.8199 38.2071 10.947 38.1876 11.0714C38.1681 11.1959 38.1237 11.3151 38.0571 11.4221C37.9905 11.529 37.9031 11.6214 37.8 11.6938L23.2062 22.7313C22.2821 23.4266 21.1565 23.8018 20 23.8Z" fill="#001418"/>
<path d="M2.60624 30.7125C2.41609 30.7128 2.23036 30.6552 2.07368 30.5475C1.91701 30.4398 1.79679 30.2869 1.72899 30.1093C1.66119 29.9317 1.649 29.7376 1.69405 29.5529C1.73911 29.3681 1.83926 29.2015 1.98124 29.075L13.4812 18.8187C13.6669 18.653 13.9108 18.5678 14.1593 18.5818C14.4078 18.5959 14.6405 18.7081 14.8062 18.8937C14.972 19.0794 15.0572 19.3233 15.0432 19.5718C15.0291 19.8203 14.9169 20.053 14.7312 20.2187L3.23124 30.475C3.06045 30.6304 2.83711 30.7152 2.60624 30.7125ZM37.3937 30.7125C37.1629 30.7152 36.9395 30.6304 36.7687 30.475L25.2687 20.2187C25.0831 20.053 24.9709 19.8203 24.9568 19.5718C24.9428 19.3233 25.028 19.0794 25.1937 18.8937C25.3595 18.7081 25.5922 18.5959 25.8407 18.5818C26.0892 18.5678 26.3331 18.653 26.5187 18.8187L38.0125 29.075C38.1545 29.2015 38.2546 29.3681 38.2997 29.5529C38.3447 29.7376 38.3325 29.9317 38.2647 30.1093C38.1969 30.2869 38.0767 30.4398 37.92 30.5475C37.7634 30.6552 37.5776 30.7128 37.3875 30.7125H37.3937Z" fill="#001418"/>
</svg>
