<svg width="40" height="40" viewBox="0 0 40 40" fill="none" xmlns="http://www.w3.org/2000/svg">
<g clip-path="url(#clip0_27_2)">
<path d="M39.5 20C39.5 29.5306 32.6622 37.4647 23.625 39.1634V26.2813H27.7852H28.2143L28.2794 25.8571L29.1661 20.0758L29.2544 19.5H28.6719H23.625V16.2483C23.625 15.5302 23.8017 14.8825 24.2012 14.4206C24.5889 13.9723 25.2506 13.625 26.3843 13.625H28.9062H29.4062V13.125V8.20313V7.78123L28.9904 7.71025L28.9062 8.20313C28.9904 7.71025 28.9903 7.71024 28.9903 7.71024L28.9901 7.71021L28.9896 7.71013L28.9881 7.70987L28.9825 7.70892L28.9616 7.70544L28.8825 7.6926C28.8138 7.68162 28.7138 7.66605 28.5873 7.64742C28.3342 7.61018 27.9745 7.56063 27.5457 7.51111C26.6901 7.41232 25.55 7.3125 24.4293 7.3125C22.044 7.3125 20.0168 8.03718 18.5853 9.47005C17.1532 10.9034 16.375 12.9877 16.375 15.5938V19.5H11.7969H11.2969V20V25.7813V26.2813H11.7969H16.375V39.1634C7.33776 37.4647 0.5 29.5306 0.5 20C0.5 9.23045 9.23045 0.5 20 0.5C30.7696 0.5 39.5 9.23045 39.5 20Z" fill="#1877F2" stroke="white"/>
<path d="M27.7852 25.7812L28.6719 20H23.125V16.2483C23.125 14.6667 23.8998 13.125 26.3843 13.125H28.9062V8.20312C28.9062 8.20312 26.6175 7.8125 24.4293 7.8125C19.8609 7.8125 16.875 10.5812 16.875 15.5938V20H11.7969V25.7812H16.875V39.7569C18.9457 40.081 21.0543 40.081 23.125 39.7569V25.7812H27.7852Z" fill="white"/>
</g>
<defs>
<clipPath id="clip0_27_2">
<rect width="40" height="40" fill="white"/>
</clipPath>
</defs>
</svg>
