<svg width="40" height="40" viewBox="0 0 40 40" fill="none" xmlns="http://www.w3.org/2000/svg">
<path d="M13.3333 5H10C9.34364 5.00011 8.69376 5.12988 8.08769 5.38186C7.48162 5.63384 6.9313 6.00306 6.46833 6.46833C6.00306 6.9313 5.63384 7.48162 5.38186 8.08769C5.12988 8.69376 5.00011 9.34364 5 10V13.3333C5 14.7083 5.56167 15.9583 6.46833 16.865C6.9313 17.3303 7.48162 17.6995 8.08769 17.9515C8.69376 18.2035 9.34364 18.3332 10 18.3333H13.3333C13.9897 18.3332 14.6396 18.2035 15.2456 17.9515C15.8517 17.6995 16.402 17.3303 16.865 16.865C17.3303 16.402 17.6995 15.8517 17.9515 15.2456C18.2035 14.6396 18.3332 13.9897 18.3333 13.3333V10C18.3332 9.34364 18.2035 8.69376 17.9515 8.08769C17.6995 7.48162 17.3303 6.9313 16.865 6.46833C16.402 6.00306 15.8517 5.63384 15.2456 5.38186C14.6396 5.12988 13.9897 5.00011 13.3333 5ZM30 5H26.6667C26.0103 5.00011 25.3604 5.12988 24.7544 5.38186C24.1483 5.63384 23.598 6.00306 23.135 6.46833C22.6697 6.9313 22.3005 7.48162 22.0485 8.08769C21.7965 8.69376 21.6668 9.34364 21.6667 10V13.3333C21.6667 14.7083 22.2283 15.9583 23.135 16.865C23.598 17.3303 24.1483 17.6995 24.7544 17.9515C25.3604 18.2035 26.0103 18.3332 26.6667 18.3333H30C30.6564 18.3332 31.3062 18.2035 31.9123 17.9515C32.5184 17.6995 33.0687 17.3303 33.5317 16.865C33.9969 16.402 34.3662 15.8517 34.6181 15.2456C34.8701 14.6396 34.9999 13.9897 35 13.3333V10C34.9999 9.34364 34.8701 8.69376 34.6181 8.08769C34.3662 7.48162 33.9969 6.9313 33.5317 6.46833C33.0687 6.00306 32.5184 5.63384 31.9123 5.38186C31.3062 5.12988 30.6564 5.00011 30 5ZM13.3333 21.6667H10C9.34364 21.6668 8.69376 21.7965 8.08769 22.0485C7.48162 22.3005 6.9313 22.6697 6.46833 23.135C6.00306 23.598 5.63384 24.1483 5.38186 24.7544C5.12988 25.3604 5.00011 26.0103 5 26.6667V30C5 31.375 5.56167 32.625 6.46833 33.5317C6.9313 33.9969 7.48162 34.3662 8.08769 34.6181C8.69376 34.8701 9.34364 34.9999 10 35H13.3333C13.9897 34.9999 14.6396 34.8701 15.2456 34.6181C15.8517 34.3662 16.402 33.9969 16.865 33.5317C17.3303 33.0687 17.6995 32.5184 17.9515 31.9123C18.2035 31.3062 18.3332 30.6564 18.3333 30V26.6667C18.3332 26.0103 18.2035 25.3604 17.9515 24.7544C17.6995 24.1483 17.3303 23.598 16.865 23.135C16.402 22.6697 15.8517 22.3005 15.2456 22.0485C14.6396 21.7965 13.9897 21.6668 13.3333 21.6667ZM30 21.6667H26.6667C26.0103 21.6668 25.3604 21.7965 24.7544 22.0485C24.1483 22.3005 23.598 22.6697 23.135 23.135C22.6697 23.598 22.3005 24.1483 22.0485 24.7544C21.7965 25.3604 21.6668 26.0103 21.6667 26.6667V30C21.6667 31.375 22.2283 32.625 23.135 33.5317C23.598 33.9969 24.1483 34.3662 24.7544 34.6181C25.3604 34.8701 26.0103 34.9999 26.6667 35H30C30.6564 34.9999 31.3062 34.8701 31.9123 34.6181C32.5184 34.3662 33.0687 33.9969 33.5317 33.5317C33.9969 33.0687 34.3662 32.5184 34.6181 31.9123C34.8701 31.3062 34.9999 30.6564 35 30V26.6667C34.9999 26.0103 34.8701 25.3604 34.6181 24.7544C34.3662 24.1483 33.9969 23.598 33.5317 23.135C33.0687 22.6697 32.5184 22.3005 31.9123 22.0485C31.3062 21.7965 30.6564 21.6668 30 21.6667Z" fill="#004454"/>
</svg>
