<svg width="101" height="33" viewBox="0 0 101 33" fill="none" xmlns="http://www.w3.org/2000/svg">
<path d="M79.0616 7.09565C79.4793 6.76142 79.6882 6.59431 79.8971 6.4272C82.8007 3.96231 86.5189 4.23386 89.0047 7.15831C89.2554 7.45076 89.3807 7.47165 89.6314 7.22098C89.7985 7.03298 89.9865 6.88676 90.1536 6.69876C92.0963 4.79786 94.6656 4.23386 97.0678 5.2992C99.5954 6.4272 100.953 8.41165 100.974 11.1899C101.016 17.185 100.995 23.1592 100.995 29.1544C100.995 31.285 99.6789 32.6219 97.5692 32.6219C96.7336 32.6219 95.898 32.5593 95.0625 32.6428C94.206 32.7264 93.9554 32.4548 93.9554 31.5566C93.9972 25.7077 93.9763 19.8588 93.9763 14.0099C93.9763 13.7592 93.9763 13.5294 93.9763 13.2788C93.9554 11.921 93.4123 11.357 92.1171 11.2943C90.9474 11.2317 90.1327 11.9419 90.0074 13.1326C89.9865 13.4041 90.0074 13.6966 90.0074 13.9681C90.0074 19.0232 90.0074 24.0575 90.0074 29.1126C90.0074 31.3268 88.7331 32.6219 86.5189 32.601C85.3909 32.5801 83.866 33.1024 83.2185 32.3713C82.6545 31.7446 83.0305 30.2615 83.0305 29.1544C83.0305 23.9739 83.0305 18.7726 83.0305 13.5921C83.0305 11.7539 81.8398 10.8139 80.294 11.4405C79.3331 11.8374 79.0198 12.6103 79.0198 13.613C79.0407 18.4592 79.0198 23.2846 79.0198 28.1308C79.0198 28.5068 79.0198 28.9037 79.0198 29.2797C78.9571 31.3059 77.662 32.5801 75.6567 32.601C74.8211 32.6219 73.9856 32.5384 73.15 32.6219C72.2518 32.7055 71.9802 32.4548 72.0011 31.4939C72.0429 23.2846 72.022 15.0752 72.022 6.84498C72.022 6.48987 72.0429 6.15564 72.022 5.80053C71.9802 5.34098 72.1682 5.19475 72.6278 5.19475C74.5496 5.21564 76.4504 5.21564 78.3722 5.19475C78.8527 5.19475 79.0825 5.32009 79.0407 5.84231C78.9989 6.21831 79.0407 6.55253 79.0616 7.09565Z" fill="#02B9EF"/>
<path d="M34.7769 18.4174C34.7769 21.2792 34.7769 24.1201 34.7769 26.9819C34.756 30.7001 32.8133 32.6219 29.0951 32.6428C27.4658 32.6428 25.8155 32.6637 24.1862 32.6428C20.8858 32.601 18.4626 30.4077 18.2955 27.1072C18.1702 24.7468 18.1493 22.3655 18.2746 20.005C18.4417 16.621 21.032 14.2397 24.4578 14.1979C25.356 14.177 26.2751 14.1979 27.1733 14.1979C28.0507 14.177 28.3849 13.6757 28.364 12.8401C28.364 12.0046 27.988 11.6285 27.1524 11.6703C26.2124 11.6912 25.2724 11.6912 24.3324 11.6703C22.0346 11.6285 20.7604 10.3752 20.7813 8.11921C20.7813 7.20009 20.3635 5.96765 20.9693 5.42453C21.4915 4.96498 22.6822 5.25742 23.5804 5.25742C25.92 5.23653 28.2387 5.25742 30.5782 5.25742C33.064 5.25742 34.756 6.94943 34.7769 9.4561C34.7978 12.4223 34.7769 15.4303 34.7769 18.4174ZM28.3849 23.1592C28.3849 22.8041 28.3849 22.4699 28.3849 22.1148C28.3849 19.9841 28.3849 19.9841 26.2542 20.0677C25.1889 20.1095 24.604 20.6526 24.5831 21.7597C24.5622 22.637 24.5622 23.4935 24.5831 24.3708C24.604 25.8748 25.2724 26.2717 27.4449 26.3344C29.0533 26.3761 28.2387 25.2481 28.3849 24.6215C28.4684 24.1619 28.364 23.6397 28.3849 23.1592Z" fill="#06306F"/>
<path d="M53.3677 16.1406C53.3677 19.3366 53.4094 22.5535 53.3468 25.7495C53.305 28.2144 52.7201 30.4495 50.3388 31.7655C49.3779 32.2877 48.3334 32.5802 47.2472 32.6011C44.845 32.6428 42.4427 32.6011 40.0405 32.6429C39.4556 32.6429 39.3303 32.434 39.3512 31.9117C39.393 31.0344 39.3303 30.178 39.3721 29.3006C39.4139 27.6295 40.6881 26.3553 42.3592 26.2926C43.4454 26.2508 44.5108 26.2717 45.597 26.2926C46.4743 26.2926 46.9548 25.9375 46.9548 24.9975C46.9548 24.0366 46.4952 23.7024 45.6179 23.6815C44.1556 23.6397 42.6934 23.8486 41.2521 23.4308C38.7663 22.6997 36.949 20.6317 36.8863 18.0624C36.761 13.989 36.8445 9.91569 36.8236 5.84235C36.8236 5.38279 36.9698 5.23657 37.4294 5.25746C39.1423 5.27835 40.8343 5.29924 42.5472 5.25746C43.2992 5.23657 43.1947 5.65435 43.1947 6.11391C43.1947 9.18458 43.1947 12.2344 43.1947 15.305C43.1947 16.6419 43.8214 17.3522 44.9912 17.3939C46.3699 17.4357 46.9756 16.8717 46.9756 15.4721C46.9756 12.3806 46.9965 9.26814 46.9548 6.17657C46.9548 5.44546 47.1428 5.23657 47.8739 5.25746C49.3988 5.32012 50.9445 5.34101 52.4694 5.25746C53.305 5.21568 53.4303 5.52901 53.4094 6.26013C53.3468 9.53969 53.3677 12.8401 53.3677 16.1406Z" fill="#06306F"/>
<path d="M0.142996 20.8824C0.142996 17.4775 0.142996 14.0517 0.142996 10.6468C0.142996 7.30457 2.19011 5.21567 5.55323 5.25745C7.74657 5.27834 9.93991 5.00678 12.1124 5.42456C14.8906 5.96767 16.6453 8.11923 16.6661 10.981C16.687 14.0099 16.6661 17.0388 16.6661 20.0677C16.6661 23.8695 14.431 26.1882 10.6292 26.2926C9.48035 26.3344 8.33146 26.3135 7.18257 26.2926C6.66034 26.2717 6.43056 26.4388 6.45145 27.0028C6.49323 27.8384 6.47234 28.6739 6.45145 29.5095C6.40968 31.3059 5.13545 32.6011 3.35989 32.622C2.31544 32.6428 0.999441 33.0606 0.330995 32.4548C-0.295673 31.8908 0.163885 30.5539 0.142996 29.5513C0.122107 26.6686 0.142996 23.765 0.142996 20.8824ZM6.45145 15.7646C6.45145 16.433 6.45145 17.0806 6.45145 17.749C6.45145 20.1095 6.45145 20.1095 8.8119 19.9006C9.83546 19.817 10.3159 19.3157 10.3368 18.2921C10.3577 17.1224 10.295 15.9317 10.3577 14.7619C10.483 11.3779 9.85635 11.7121 7.09901 11.6912C6.59768 11.6912 6.43057 11.8375 6.43057 12.3388C6.47234 13.4668 6.45145 14.6157 6.45145 15.7646Z" fill="#06306F"/>
<path d="M59.2794 20.9241C59.2794 18.1459 59.2585 15.3468 59.3003 12.5686C59.3003 11.921 59.1541 11.6495 58.4439 11.6703C57.5039 11.7121 56.2505 11.9837 55.7283 11.5241C55.0808 10.9183 55.5821 9.62323 55.4985 8.62056C55.4985 8.55789 55.4985 8.47433 55.4985 8.41167C55.4985 7.42989 55.1852 6.281 55.603 5.54988C56.0208 4.81877 57.295 5.27833 58.1932 5.04855C59.9688 4.58899 61.3057 3.56544 62.3919 2.14499C63.1439 1.1841 64.0839 0.494762 65.2955 0.264984C65.943 0.13965 66.3399 0.223206 66.2981 1.05876C66.2355 2.22854 66.2981 3.41921 66.2772 4.60988C66.2563 5.11122 66.4443 5.27833 66.9457 5.25744C67.7812 5.23655 68.6168 5.27833 69.4524 5.23655C69.9537 5.21566 70.1208 5.40366 70.0999 5.905C70.079 7.61789 70.079 9.30989 70.0999 11.0228C70.0999 11.5032 69.9746 11.7539 69.4524 11.6912C69.3479 11.6703 69.2435 11.6912 69.139 11.6912C68.2199 11.7748 66.9457 11.2735 66.4652 11.9001C66.0057 12.485 66.2981 13.6966 66.2981 14.6366C66.2981 20.3184 66.2772 25.9793 66.319 31.661C66.319 32.4548 66.1101 32.7055 65.3163 32.6428C64.5643 32.5802 63.7914 32.6428 63.0186 32.6219C60.7626 32.5384 59.2794 31.0135 59.2794 28.7575C59.2794 26.1464 59.2794 23.5353 59.2794 20.9241Z" fill="#02B9EF"/>
</svg>
