<svg width="40" height="40" viewBox="0 0 40 40" fill="none" xmlns="http://www.w3.org/2000/svg">
<path d="M34.135 25.8112L31.385 23.0612C30.5653 22.248 29.4588 21.7896 28.3041 21.7847C27.1495 21.7797 26.0392 22.2288 25.2125 23.035C24.7714 23.4786 24.1895 23.7546 23.5669 23.8155C22.9443 23.8764 22.32 23.7184 21.8013 23.3687C19.754 22.0024 17.9953 20.2471 16.625 18.2025C16.2815 17.678 16.1292 17.0511 16.1939 16.4275C16.2585 15.8038 16.5362 15.2215 16.98 14.7787C17.7789 13.9513 18.2221 12.844 18.2149 11.6939C18.2076 10.5438 17.7505 9.44224 16.9413 8.62495L14.1913 5.87495C13.368 5.05446 12.253 4.59375 11.0906 4.59375C9.92829 4.59375 8.81333 5.05446 7.99002 5.87495L7.19877 6.66745C3.07377 10.7925 3.38251 19.465 11.965 28.0424C17.14 33.2187 22.3488 35.3862 26.5725 35.3862C27.8158 35.4276 29.055 35.2211 30.2177 34.7788C31.3805 34.3365 32.4435 33.6672 33.345 32.8099L34.1375 32.0175C34.9595 31.1938 35.4209 30.0775 35.4205 28.9138C35.42 27.7501 34.9577 26.6342 34.135 25.8112ZM32.3675 30.25L31.575 31.0424C28.325 34.2924 21.1513 33.6987 13.73 26.2762C6.30877 18.8537 5.71377 11.675 8.96377 8.42495L9.75002 7.6337C10.104 7.28097 10.5834 7.08292 11.0831 7.08292C11.5829 7.08292 12.0623 7.28097 12.4163 7.6337L15.1663 10.3837C15.5138 10.733 15.7111 11.2044 15.716 11.6971C15.7209 12.1899 15.5331 12.665 15.1925 13.0212C14.3479 13.8712 13.821 14.9857 13.7001 16.178C13.5793 17.3702 13.8718 18.5677 14.5288 19.57C16.0857 21.8998 18.0878 23.899 20.42 25.4524C21.4192 26.1095 22.6136 26.4037 23.8037 26.2861C24.9938 26.1685 26.1075 25.6461 26.9588 24.8062C27.3143 24.4616 27.7908 24.2703 28.2858 24.2733C28.7809 24.2763 29.255 24.4735 29.6063 24.8225L32.3563 27.5725C32.5335 27.7471 32.6744 27.9551 32.771 28.1845C32.8675 28.4138 32.9178 28.66 32.9188 28.9089C32.9199 29.1577 32.8717 29.4043 32.7771 29.6345C32.6825 29.8646 32.5433 30.0738 32.3675 30.25Z" fill="#001418"/>
</svg>
