<svg width="51" height="50" viewBox="0 0 51 50" fill="none" xmlns="http://www.w3.org/2000/svg">
<path d="M48.3027 0H40.7832C40.589 0 40.4027 0.0771656 40.2653 0.214521C40.1279 0.351877 40.0508 0.538172 40.0508 0.732422C40.0508 0.926672 40.1279 1.11297 40.2653 1.25032C40.4027 1.38768 40.589 1.46484 40.7832 1.46484H48.3027C48.4969 1.46505 48.6831 1.54228 48.8204 1.67959C48.9577 1.8169 49.035 2.00308 49.0352 2.19727V9.7168C49.0352 9.91105 49.1123 10.0973 49.2497 10.2347C49.387 10.3721 49.5733 10.4492 49.7676 10.4492C49.9618 10.4492 50.1481 10.3721 50.2855 10.2347C50.4228 10.0973 50.5 9.91105 50.5 9.7168V2.19727C50.4994 1.61471 50.2677 1.05621 49.8557 0.644278C49.4438 0.232351 48.8853 0.000646204 48.3027 0ZM1.23242 10.4492C1.42667 10.4492 1.61297 10.3721 1.75032 10.2347C1.88768 10.0973 1.96484 9.91105 1.96484 9.7168V2.19727C1.96505 2.00308 2.04228 1.8169 2.17959 1.67959C2.3169 1.54228 2.50308 1.46505 2.69727 1.46484H10.2168C10.411 1.46484 10.5973 1.38768 10.7347 1.25032C10.8721 1.11297 10.9492 0.926672 10.9492 0.732422C10.9492 0.538172 10.8721 0.351877 10.7347 0.214521C10.5973 0.0771656 10.411 0 10.2168 0L2.69727 0C2.11471 0.000646204 1.55621 0.232351 1.14428 0.644278C0.732351 1.05621 0.500646 1.61471 0.5 2.19727L0.5 9.7168C0.5 9.91105 0.577166 10.0973 0.714521 10.2347C0.851877 10.3721 1.03817 10.4492 1.23242 10.4492ZM49.7676 39.5508C49.5733 39.5508 49.387 39.6279 49.2497 39.7653C49.1123 39.9027 49.0352 40.089 49.0352 40.2832V47.8027C49.035 47.9969 48.9577 48.1831 48.8204 48.3204C48.6831 48.4577 48.4969 48.535 48.3027 48.5352H40.7832C40.589 48.5352 40.4027 48.6123 40.2653 48.7497C40.1279 48.887 40.0508 49.0733 40.0508 49.2676C40.0508 49.4618 40.1279 49.6481 40.2653 49.7855C40.4027 49.9228 40.589 50 40.7832 50H48.3027C48.8853 49.9994 49.4438 49.7677 49.8557 49.3557C50.2677 48.9438 50.4994 48.3853 50.5 47.8027V40.2832C50.5 40.089 50.4228 39.9027 50.2855 39.7653C50.1481 39.6279 49.9618 39.5508 49.7676 39.5508ZM10.2168 48.5352H2.69727C2.50308 48.535 2.3169 48.4577 2.17959 48.3204C2.04228 48.1831 1.96505 47.9969 1.96484 47.8027V40.2832C1.96484 40.089 1.88768 39.9027 1.75032 39.7653C1.61297 39.6279 1.42667 39.5508 1.23242 39.5508C1.03817 39.5508 0.851877 39.6279 0.714521 39.7653C0.577166 39.9027 0.5 40.089 0.5 40.2832L0.5 47.8027C0.500646 48.3853 0.732351 48.9438 1.14428 49.3557C1.55621 49.7677 2.11471 49.9994 2.69727 50H10.2168C10.411 50 10.5973 49.9228 10.7347 49.7855C10.8721 49.6481 10.9492 49.4618 10.9492 49.2676C10.9492 49.0733 10.8721 48.887 10.7347 48.7497C10.5973 48.6123 10.411 48.5352 10.2168 48.5352ZM7.82422 10.9863V18.5059C7.8253 19.4768 8.21148 20.4076 8.89802 21.0942C9.58457 21.7807 10.5154 22.1669 11.4863 22.168H19.0059C19.9768 22.1669 20.9076 21.7807 21.5942 21.0942C22.2807 20.4076 22.6669 19.4768 22.668 18.5059V10.9863C22.6669 10.0154 22.2807 9.08457 21.5942 8.39802C20.9076 7.71148 19.9768 7.3253 19.0059 7.32422H11.4863C10.5154 7.3253 9.58457 7.71148 8.89802 8.39802C8.21148 9.08457 7.8253 10.0154 7.82422 10.9863ZM9.28906 10.9863C9.28971 10.4038 9.52141 9.84527 9.93334 9.43334C10.3453 9.02141 10.9038 8.78971 11.4863 8.78906H19.0059C19.5884 8.78971 20.1469 9.02141 20.5588 9.43334C20.9708 9.84527 21.2025 10.4038 21.2031 10.9863V18.5059C21.2025 19.0884 20.9708 19.6469 20.5588 20.0588C20.1469 20.4708 19.5884 20.7025 19.0059 20.7031H11.4863C10.9038 20.7025 10.3453 20.4708 9.93334 20.0588C9.52141 19.6469 9.28971 19.0884 9.28906 18.5059V10.9863ZM13.4395 17.041H17.0527C17.1822 17.041 17.3064 16.9896 17.398 16.898C17.4896 16.8064 17.541 16.6822 17.541 16.5527V12.9395C17.541 12.81 17.4896 12.6858 17.398 12.5942C17.3064 12.5026 17.1822 12.4512 17.0527 12.4512H13.4395C13.31 12.4512 13.1858 12.5026 13.0942 12.5942C13.0026 12.6858 12.9512 12.81 12.9512 12.9395V16.5527C12.9512 16.6822 13.0026 16.8064 13.0942 16.898C13.1858 16.9896 13.31 17.041 13.4395 17.041ZM31.9941 22.168H39.5137C40.4846 22.1669 41.4154 21.7807 42.102 21.0942C42.7885 20.4076 43.1747 19.4768 43.1758 18.5059V10.9863C43.1747 10.0154 42.7885 9.08457 42.102 8.39802C41.4154 7.71148 40.4846 7.3253 39.5137 7.32422H31.9941C31.0232 7.3253 30.0924 7.71148 29.4058 8.39802C28.7193 9.08457 28.3331 10.0154 28.332 10.9863V18.5059C28.3331 19.4768 28.7193 20.4076 29.4058 21.0942C30.0924 21.7807 31.0232 22.1669 31.9941 22.168ZM29.7969 10.9863C29.7975 10.4038 30.0292 9.84527 30.4412 9.43334C30.8531 9.02141 31.4116 8.78971 31.9941 8.78906H39.5137C40.0962 8.78971 40.6547 9.02141 41.0667 9.43334C41.4786 9.84527 41.7103 10.4038 41.7109 10.9863V18.5059C41.7103 19.0884 41.4786 19.6469 41.0667 20.0588C40.6547 20.4708 40.0962 20.7025 39.5137 20.7031H31.9941C31.4116 20.7025 30.8531 20.4708 30.4412 20.0588C30.0292 19.6469 29.7975 19.0884 29.7969 18.5059V10.9863ZM33.9473 17.041H37.5605C37.69 17.041 37.8142 16.9896 37.9058 16.898C37.9974 16.8064 38.0488 16.6822 38.0488 16.5527V12.9395C38.0488 12.81 37.9974 12.6858 37.9058 12.5942C37.8142 12.5026 37.69 12.4512 37.5605 12.4512H33.9473C33.8178 12.4512 33.6936 12.5026 33.602 12.5942C33.5104 12.6858 33.459 12.81 33.459 12.9395V16.5527C33.459 16.6822 33.5104 16.8064 33.602 16.898C33.6936 16.9896 33.8178 17.041 33.9473 17.041ZM37.3164 29.2969V27.832H35.8516V29.2969H37.3164ZM38.7812 36.6211H40.2461V35.1562H38.7812V36.6211ZM35.8516 35.1562H34.3867V36.6211H35.8516V35.1562ZM34.3867 30.7617H35.8516V29.2969H34.3867V30.7617ZM24.7676 20.7031V22.168H26.2324V20.7031H24.7676ZM43.1758 41.8457V37.4512C43.1758 37.2569 43.0986 37.0706 42.9613 36.9333C42.8239 36.7959 42.6376 36.7188 42.4434 36.7188H41.2715C41.0772 36.7188 40.8909 36.7959 40.7536 36.9333C40.6162 37.0706 40.5391 37.2569 40.5391 37.4512C40.5391 37.6454 40.6162 37.8317 40.7536 37.9691C40.8909 38.1064 41.0772 38.1836 41.2715 38.1836H41.7109V41.1133H32.1895C31.9952 41.1133 31.8089 41.1904 31.6716 41.3278C31.5342 41.4652 31.457 41.6515 31.457 41.8457C31.457 42.04 31.5342 42.2262 31.6716 42.3636C31.8089 42.501 31.9952 42.5781 32.1895 42.5781H42.4434C42.6376 42.5781 42.8239 42.501 42.9613 42.3636C43.0986 42.2262 43.1758 42.04 43.1758 41.8457ZM31.9941 33.7891H39.5137C39.7079 33.7891 39.8942 33.7119 40.0316 33.5745C40.1689 33.4372 40.2461 33.2509 40.2461 33.0566C40.2461 32.8624 40.1689 32.6761 40.0316 32.5387C39.8942 32.4014 39.7079 32.3242 39.5137 32.3242H31.9941C31.7999 32.3242 31.6136 32.4014 31.4762 32.5387C31.3389 32.6761 31.2617 32.8624 31.2617 33.0566C31.2617 33.2509 31.3389 33.4372 31.4762 33.5745C31.6136 33.7119 31.7999 33.7891 31.9941 33.7891ZM34.9238 39.6484H38.0488C38.2431 39.6484 38.4294 39.5713 38.5667 39.4339C38.7041 39.2966 38.7812 39.1103 38.7812 38.916C38.7812 38.7218 38.7041 38.5355 38.5667 38.3981C38.4294 38.2608 38.2431 38.1836 38.0488 38.1836H34.9238C34.7296 38.1836 34.5433 38.2608 34.4059 38.3981C34.2686 38.5355 34.1914 38.7218 34.1914 38.916C34.1914 39.1103 34.2686 39.2966 34.4059 39.4339C34.5433 39.5713 34.7296 39.6484 34.9238 39.6484ZM17.0527 32.959H13.4395C13.31 32.959 13.1858 33.0104 13.0942 33.102C13.0026 33.1936 12.9512 33.3178 12.9512 33.4473V37.0605C12.9512 37.19 13.0026 37.3142 13.0942 37.4058C13.1858 37.4974 13.31 37.5488 13.4395 37.5488H17.0527C17.1822 37.5488 17.3064 37.4974 17.398 37.4058C17.4896 37.3142 17.541 37.19 17.541 37.0605V33.4473C17.541 33.3178 17.4896 33.1936 17.398 33.102C17.3064 33.0104 17.1822 32.959 17.0527 32.959ZM19.0059 27.832H11.4863C10.5154 27.8331 9.58457 28.2193 8.89802 28.9058C8.21148 29.5924 7.8253 30.5232 7.82422 31.4941V39.0137C7.8253 39.9846 8.21148 40.9154 8.89802 41.602C9.58457 42.2885 10.5154 42.6747 11.4863 42.6758H19.0059C19.9768 42.6747 20.9076 42.2885 21.5942 41.602C22.2807 40.9154 22.6669 39.9846 22.668 39.0137V31.4941C22.6669 30.5232 22.2807 29.5924 21.5942 28.9058C20.9076 28.2193 19.9768 27.8331 19.0059 27.832ZM21.2031 39.0137C21.2025 39.5962 20.9708 40.1547 20.5588 40.5667C20.1469 40.9786 19.5884 41.2103 19.0059 41.2109H11.4863C10.9038 41.2103 10.3453 40.9786 9.93334 40.5667C9.52141 40.1547 9.28971 39.5962 9.28906 39.0137V31.4941C9.28971 30.9116 9.52141 30.3531 9.93334 29.9412C10.3453 29.5292 10.9038 29.2975 11.4863 29.2969H19.0059C19.5884 29.2975 20.1469 29.5292 20.5588 29.9412C20.9708 30.3531 21.2025 30.9116 21.2031 31.4941V39.0137ZM25.5 32.2266C25.3057 32.2266 25.1195 32.3037 24.9821 32.4411C24.8447 32.5784 24.7676 32.7647 24.7676 32.959V41.9434C24.7676 42.1376 24.8447 42.3239 24.9821 42.4613C25.1195 42.5986 25.3057 42.6758 25.5 42.6758C25.6943 42.6758 25.8805 42.5986 26.0179 42.4613C26.1553 42.3239 26.2324 42.1376 26.2324 41.9434V32.959C26.2324 32.7647 26.1553 32.5784 26.0179 32.4411C25.8805 32.3037 25.6943 32.2266 25.5 32.2266ZM24.7676 29.2969H26.2324V27.832H24.7676V29.2969ZM28.332 42.5781H29.7969V41.1133H28.332V42.5781ZM29.0645 27.832C28.8702 27.832 28.6839 27.9092 28.5466 28.0466C28.4092 28.1839 28.332 28.3702 28.332 28.5645V37.5488C28.332 37.7431 28.4092 37.9294 28.5466 38.0667C28.6839 38.2041 28.8702 38.2812 29.0645 38.2812C29.2587 38.2812 29.445 38.2041 29.5824 38.0667C29.7197 37.9294 29.7969 37.7431 29.7969 37.5488V28.5645C29.7969 28.3702 29.7197 28.1839 29.5824 28.0466C29.445 27.9092 29.2587 27.832 29.0645 27.832ZM31.457 35.791V38.916C31.457 39.1103 31.5342 39.2966 31.6716 39.4339C31.8089 39.5713 31.9952 39.6484 32.1895 39.6484C32.3837 39.6484 32.57 39.5713 32.7074 39.4339C32.8447 39.2966 32.9219 39.1103 32.9219 38.916V35.791C32.9219 35.5968 32.8447 35.4105 32.7074 35.2731C32.57 35.1358 32.3837 35.0586 32.1895 35.0586C31.9952 35.0586 31.8089 35.1358 31.6716 35.2731C31.5342 35.4105 31.457 35.5968 31.457 35.791ZM42.4434 33.8867C42.6376 33.8867 42.8239 33.8096 42.9613 33.6722C43.0986 33.5348 43.1758 33.3485 43.1758 33.1543V28.5645C43.1758 28.3702 43.0986 28.1839 42.9613 28.0466C42.8239 27.9092 42.6376 27.832 42.4434 27.832H39.6079C39.4137 27.832 39.2274 27.9092 39.09 28.0466C38.9527 28.1839 38.8755 28.3702 38.8755 28.5645C38.8755 28.7587 38.9527 28.945 39.09 29.0824C39.2274 29.2197 39.4137 29.2969 39.6079 29.2969H41.7109V33.1543C41.7109 33.3485 41.7881 33.5348 41.9255 33.6722C42.0628 33.8096 42.2491 33.8867 42.4434 33.8867ZM23.8156 8.78906H24.7676V18.5059C24.7676 18.7001 24.8447 18.8864 24.9821 19.0238C25.1195 19.1611 25.3057 19.2383 25.5 19.2383C25.6943 19.2383 25.8805 19.1611 26.0179 19.0238C26.1553 18.8864 26.2324 18.7001 26.2324 18.5059V8.05664C26.2324 7.86239 26.1553 7.6761 26.0179 7.53874C25.8805 7.40138 25.6943 7.32422 25.5 7.32422H23.8156C23.6214 7.32422 23.4351 7.40138 23.2977 7.53874C23.1604 7.6761 23.0832 7.86239 23.0832 8.05664C23.0832 8.25089 23.1604 8.43719 23.2977 8.57454C23.4351 8.7119 23.6214 8.78906 23.8156 8.78906ZM47.4727 25C47.4727 24.8057 47.3955 24.6195 47.2581 24.4821C47.1208 24.3447 46.9345 24.2676 46.7402 24.2676H4.25977C4.06552 24.2676 3.87922 24.3447 3.74186 24.4821C3.60451 24.6195 3.52734 24.8057 3.52734 25C3.52734 25.1943 3.60451 25.3805 3.74186 25.5179C3.87922 25.6553 4.06552 25.7324 4.25977 25.7324H46.7402C46.9345 25.7324 47.1208 25.6553 47.2581 25.5179C47.3955 25.3805 47.4727 25.1943 47.4727 25Z" fill="black"/>
</svg>
