<svg width="240" height="240" viewBox="0 0 240 240" fill="none" xmlns="http://www.w3.org/2000/svg">
<g clip-path="url(#clip0_245_5)">
<path d="M120 240C186.274 240 240 186.274 240 120C240 53.7258 186.274 0 120 0C53.7258 0 0 53.7258 0 120C0 186.274 53.7258 240 120 240Z" fill="url(#paint0_linear_245_5)"/>
<path d="M44.691 125.87C58.719 118.143 74.378 111.694 89.009 105.212C114.18 94.595 139.451 84.162 164.977 74.449C169.943 72.794 178.867 71.176 179.742 78.536C179.262 88.954 177.292 99.311 175.94 109.668C172.509 132.444 168.542 155.142 164.675 177.843C163.342 185.404 153.87 189.319 147.809 184.48C133.243 174.64 118.565 164.898 104.185 154.83C99.475 150.044 103.843 143.17 108.049 139.752C120.046 127.929 132.769 117.884 144.139 105.45C147.206 98.044 138.144 104.286 135.155 106.199C118.731 117.517 102.709 129.526 85.393 139.473C76.548 144.342 66.239 140.181 57.398 137.463C49.471 134.182 37.855 130.875 44.69 125.871L44.691 125.87Z" fill="white"/>
</g>
<defs>
<linearGradient id="paint0_linear_245_5" x1="160.01" y1="40.008" x2="100.01" y2="180" gradientUnits="userSpaceOnUse">
<stop stop-color="#37AEE2"/>
<stop offset="1" stop-color="#1E96C8"/>
</linearGradient>
<clipPath id="clip0_245_5">
<rect width="240" height="240" fill="white"/>
</clipPath>
</defs>
</svg>
