<svg width="40" height="30" viewBox="0 0 40 30" fill="none" xmlns="http://www.w3.org/2000/svg">
<g clip-path="url(#clip0_44_45)">
<path d="M26.6449 14.5901C22.9774 12.627 19.4657 10.8222 15.8761 8.93787V20.2103C19.6534 18.1535 23.6349 16.27 26.6605 14.5901H26.6449Z" fill="white"/>
<path d="M26.6449 14.5901C22.9774 12.627 15.8761 8.93787 15.8761 8.93787L25.344 15.3118C25.344 15.3118 23.6193 16.27 26.6449 14.5901Z" fill="#E8E0E0"/>
<path d="M35.0809 1.95594C36.2166 2.16945 37.2715 2.80791 37.8815 3.60269C39.136 5.59225 39.2819 8.02244 39.4119 10.1865C39.4257 10.4171 39.4394 10.6446 39.4542 10.8683C39.5153 11.9375 39.5153 18.0598 39.4542 19.1288C39.2193 22.7284 39.0324 23.9231 38.5338 25.1571L38.5325 25.1604C38.2231 25.9422 37.9759 26.3195 37.5481 26.7478C36.8629 27.4195 35.9913 27.8681 35.0476 28.035C28.484 28.5286 22.9078 28.6358 16.5748 28.5343C8.93428 28.3934 6.39054 28.2659 4.84836 27.9477L4.84662 27.9473C3.84946 27.7453 3.0037 27.3009 2.39338 26.6758L2.3934 26.6758L2.38971 26.6721C1.94 26.221 1.54745 25.4953 1.23041 24.4043L1.23043 24.4043L1.2293 24.4006C0.963637 23.5127 0.856667 22.7738 0.700724 20.8674C0.462163 16.5623 0.406074 13.0551 0.699763 9.14131C0.723408 8.93036 0.745696 8.71839 0.768018 8.50609C0.863517 7.59781 0.959639 6.68361 1.16528 5.81882C1.41769 4.75739 1.82112 3.84168 2.53161 3.18158C3.23301 2.53632 4.0416 2.12612 4.94925 1.95599L4.95055 1.95575C5.68846 1.81542 7.7066 1.68224 10.4491 1.58561C13.1719 1.48968 16.5635 1.43085 20.0148 1.43085C23.4583 1.43085 26.8498 1.48968 29.5746 1.58561C32.319 1.68224 34.3413 1.81542 35.08 1.95576L35.0809 1.95594ZM26.7087 14.5013L26.8972 14.1493C24.2344 12.724 21.6528 11.3734 19.0664 10.0202C18.0881 9.50843 17.1091 8.99626 16.1248 8.47956L15.3924 8.0951V8.92227V20.1955V21.037L16.1315 20.6346C17.9949 19.62 19.9094 18.6469 21.7403 17.7163L21.7933 17.6894C23.5326 16.8054 25.1978 15.9585 26.6585 15.1558L26.7527 15.2062L27.0151 14.9434L27.0306 14.9277L26.7087 14.5013Z" fill="#CD201F" stroke="white"/>
</g>
<defs>
<clipPath id="clip0_44_45">
<rect width="40" height="28.1416" fill="white" transform="translate(0 0.929199)"/>
</clipPath>
</defs>
</svg>
